<svg width="13.750000" height="17.500000" viewBox="0 0 13.75 17.5" fill="none" xmlns="http://www.w3.org/2000/svg" xmlns:xlink="http://www.w3.org/1999/xlink">
	<desc>
			Created with Pixso.
	</desc>
	<defs/>
	<path id="Форма 2" d="M6.87 0C5.05 0 3.3 0.72 2.01 2.01C0.72 3.3 0 5.05 0 6.87C-0.01 8.36 0.48 9.81 1.38 11C1.38 11 1.57 11.24 1.6 11.28L6.87 17.5L12.14 11.27C12.17 11.24 12.36 11 12.36 11L12.36 10.99C13.26 9.81 13.75 8.36 13.75 6.87C13.74 5.05 13.02 3.3 11.73 2.01C10.44 0.72 8.69 0 6.87 0ZM6.87 9.37C6.38 9.37 5.89 9.22 5.48 8.95C5.07 8.67 4.75 8.28 4.56 7.83C4.37 7.37 4.32 6.87 4.42 6.38C4.51 5.9 4.75 5.45 5.1 5.1C5.45 4.75 5.9 4.51 6.38 4.42C6.87 4.32 7.37 4.37 7.83 4.56C8.28 4.75 8.67 5.07 8.95 5.48C9.22 5.89 9.37 6.38 9.37 6.87C9.37 7.53 9.11 8.17 8.64 8.64C8.17 9.11 7.53 9.37 6.87 9.37Z" fill="#FFFFFF" fill-opacity="1.000000" fill-rule="nonzero"/>
</svg>
