<svg width="60.000000" height="60.000000" viewBox="0 0 60 60" fill="none" xmlns="http://www.w3.org/2000/svg" xmlns:xlink="http://www.w3.org/1999/xlink">
	<desc>
			Created with Pixso.
	</desc>
	<defs/>
	<path id="Форма 1" d="M6.52 48.95C9.3 51.81 12.57 53.51 16.34 54.07C16.46 54.09 17.32 54.09 18.26 54.08C20.52 54.04 21.61 53.85 24.73 52.93C28.13 51.93 28.58 51.83 29.97 51.83C31.36 51.83 31.8 51.92 35.2 52.93C38.44 53.88 39.59 54.08 41.96 54.08C43.54 54.08 43.84 54.06 44.58 53.91C46.33 53.55 48.58 52.64 50.11 51.67C54.4 48.94 57.56 44.26 59.09 38.39C59.54 36.63 59.78 35.29 59.87 33.96C59.98 32.17 60.02 26.83 59.92 26.65C59.85 26.52 59.85 26.5 59.93 26.55C60.01 26.6 60.01 26.59 59.95 26.51C59.9 26.45 59.86 26.09 59.85 25.71C59.83 24.48 59.27 21.92 58.59 19.93C55.99 12.3 50.82 6.25 43.76 2.54C41.55 1.38 38.3 0.17 37.28 0.13C37.05 0.12 36.85 0.09 36.83 0.06C36.81 0.02 36.63 0 36.43 0C36.13 0 36.08 0.02 36.08 0.13C36.08 0.24 36.21 0.31 36.71 0.47C38.31 0.96 40.8 2.07 42.44 3.01C46.45 5.32 50.06 8.73 52.61 12.6C55.21 16.54 56.7 20.85 57.24 25.93C57.37 27.08 57.37 30.48 57.24 31.59C56.49 38.46 53.64 44.18 49.43 47.3C47.28 48.89 44.92 49.71 42.22 49.81C40.57 49.86 38.97 49.57 36.8 48.8C35.4 48.3 32.81 47.5 32.19 47.36C31.15 47.14 30.09 47.06 29.19 47.14C27.84 47.27 27.01 47.49 23.94 48.53C20.68 49.63 19.52 49.87 17.72 49.81C15.49 49.73 13.5 49.16 11.68 48.08C6.82 45.18 3.54 39.18 2.69 31.59C2.55 30.36 2.57 26.88 2.73 25.57C3.52 18.85 6.11 13.21 10.56 8.52C12.3 6.69 14.41 4.93 16.2 3.81C18.59 2.31 21.06 1.13 23.22 0.47C23.73 0.31 23.85 0.25 23.84 0.13C23.83 0.02 23.77 0 23.45 0C23.24 0 23.05 0.02 23.03 0.06C23.01 0.09 22.83 0.12 22.63 0.13C22.01 0.15 19.94 0.83 18.13 1.6C17.31 1.95 15.07 3.09 14.7 3.34C14.6 3.41 14.08 3.75 13.54 4.1C11.77 5.25 10.31 6.43 8.78 7.94C7.09 9.62 5.18 12.04 4.19 13.76C4.14 13.84 3.98 14.12 3.83 14.38C3.34 15.23 2.31 17.37 1.92 18.36C0.9 20.92 0.17 23.88 0.04 25.89C-0.02 26.88 -0.02 32.66 0.04 33.7C0.22 36.75 1.27 40.56 2.75 43.51C3.88 45.77 5 47.39 6.52 48.95ZM17.43 17.62L24.92 35.5L26.3 35.5L31.05 22.8L36.39 35.5L37.78 35.5L46 13.83L44.33 13.83L38.4 29.41L33.44 17.62Q32.65 15.74 31.5 14.9C30.74 14.31 29.93 13.93 29.08 13.76C28.22 13.59 27.39 13.5 26.58 13.5C26.42 13.5 26.18 13.51 25.85 13.54Q25.37 13.57 25.23 13.57L25.23 14.22C25.92 14.3 26.57 14.58 27.17 15.06C27.79 15.53 28.37 16.39 28.9 17.62L30.12 20.5L27 28.8L22.32 17.62C21.78 16.36 21.14 15.45 20.37 14.86C19.61 14.28 18.8 13.91 17.95 13.76C17.09 13.59 16.26 13.5 15.45 13.5C15.29 13.5 15.04 13.51 14.69 13.54C14.32 13.56 14.09 13.57 14 13.57L14 14.22C14.69 14.3 15.3 14.58 15.83 15.06C16.36 15.53 16.9 16.39 17.43 17.62ZM12.56 46.16C13.96 46.85 15.14 47.2 16.59 47.36C17.34 47.44 19.03 47.38 19.86 47.25C20.87 47.08 21.86 46.82 22.87 46.44C25.62 45.42 26.26 45.23 27.87 44.95C28.55 44.83 29.07 44.8 30 44.8C32.18 44.8 33.66 45.12 36.58 46.24C37.9 46.74 39.07 47.07 40.18 47.26C41.19 47.43 43.35 47.43 44.26 47.26C46.21 46.88 48.09 46.02 49.56 44.81C50.17 44.32 51.18 43.28 51.64 42.67C52.49 41.57 53.57 39.74 53.5 39.55C53.42 39.35 53.13 39.43 52.83 39.74C52.39 40.2 51.17 41.16 50.33 41.71C47.54 43.55 44.42 44.15 41.03 43.5C40.02 43.31 39.15 43.05 37.6 42.47C36.17 41.94 35.22 41.63 34.37 41.41C32.6 40.96 30.64 40.77 28.97 40.89C26.73 41.05 25.13 41.45 22.12 42.58C20.21 43.3 18.99 43.59 17.28 43.72C15.83 43.84 14.09 43.63 12.74 43.19C12.06 42.97 10.85 42.44 10.7 42.3C10.63 42.25 10.55 42.2 10.51 42.2C10.27 42.2 8.19 40.67 7.28 39.83C6.87 39.44 6.59 39.34 6.51 39.55C6.46 39.67 7.04 40.71 7.69 41.69C9.06 43.76 10.66 45.22 12.56 46.16ZM26.39 59.86C26.8 59.87 27.16 59.91 27.18 59.94C27.23 60.02 32.71 60.01 32.76 59.93C32.78 59.9 33.15 59.86 33.57 59.86C35.64 59.83 40.13 58.68 43.02 57.45C44.5 56.82 46.92 55.47 47.02 55.22C47.08 55.06 46.98 54.97 46.77 55.01C46.67 55.03 46.21 55.18 45.75 55.34C44.02 55.95 42.58 56.22 41.05 56.22C38.94 56.22 37.88 56.04 35.17 55.2C30.47 53.76 29.28 53.76 24.54 55.26C22.06 56.05 21.27 56.18 18.99 56.18C17.47 56.18 17.29 56.17 16.41 55.98C15.89 55.86 14.99 55.61 14.41 55.41C13.2 54.99 12.99 54.94 12.93 55.04C12.84 55.18 12.96 55.31 13.48 55.65C16.32 57.47 20.57 59 24.77 59.7C25.25 59.78 25.98 59.85 26.39 59.86Z" fill="#FFFFFF" fill-opacity="1.000000" fill-rule="evenodd"/>
</svg>
